<svg id="Слой_1" data-name="Слой 1" xmlns="http://www.w3.org/2000/svg" viewBox="0 0 589.52 729.12"><defs><style>.cls-1{fill:#f76321;}</style></defs><path class="cls-1" d="M570.84,668.18c-3.36-1.18-4.47-2-5.42-1.84C519.55,673.84,481.91,655.16,444,632c-47.85-29.24-96.91-56.2-135.44-98.1-106.12-115.4-63.7-294,82-345.44,126.87-44.74,265.79,46.78,275.25,181.38.34,4.91,0,9.86,0,16.56-37,0-72.48.39-108-.61-3.51-.1-8.92-8.37-9.82-13.49-7.47-42.86-42.55-75.21-84.75-77.1-44.93-2-83.11,25.2-93.73,67.67-7.51,30.05.26,57.1,18.7,81.37,25.57,33.66,60.5,55.76,96.16,76.76,41.4,24.39,83.91,47,124.36,72.86,21.65,13.84,42.33,30.83,59,50.21,11.4,13.23,19.29,32.53,21.47,50,4.41,35.38-22.19,62.62-57.06,63.54-34.63.91-61.06-25-61.46-60.4C570.75,687.71,570.84,678.16,570.84,668.18Z" transform="translate(-249.48 -177.01)"/><path class="cls-1" d="M422.34,697.65h115c.95,3.79,2.16,7.44,2.75,11.18,6,37.56,26.8,63.53,62.75,75.18,34.67,11.24,66.6,3.37,92.17-22.69,18.3-18.65,26.79-40,26.59-63a110.22,110.22,0,0,0-6.23-34.43C705.54,635,686,612.26,661.66,595.47c-37.18-25.61-76.38-48.28-114.64-72.34-37.29-23.45-75.49-45.65-111.34-71.13-22.48-16-38.26-38.71-37.67-68.8.63-32.3,26.4-57.23,59.29-57.45,32.41-.21,59.13,24.92,60.1,56.78.33,10.7.06,21.41.06,34.91,21.63,0,42.34-.67,63,.33,8.55.41,18,2.64,25.21,7,45.88,27.84,93.57,53.44,136.23,85.64,62.22,46.95,98,110.44,97.12,190.79-1.25,109.58-91.9,202-200.35,204.83-113.79,3-208.8-82-216.25-193.49C422.08,708.14,422.34,703.69,422.34,697.65Z" transform="translate(-249.48 -177.01)"/><path class="cls-1" d="M388.54,698.31c4.26,87.07,45.43,152.94,115,203.18C394.74,927,269.2,824.05,273.22,698.31Z" transform="translate(-249.48 -177.01)"/><path class="cls-1" d="M582.91,180.69c126.22-20.54,236.44,89.52,232.15,204.5H700C695.65,299,654.86,232.38,582.91,180.69Z" transform="translate(-249.48 -177.01)"/></svg>